<?xml version="1.0" encoding="UTF-8"?>
<svg width="512" height="512" viewBox="0 0 512 512" fill="none" xmlns="http://www.w3.org/2000/svg">
<path fill-rule="evenodd" clip-rule="evenodd" d="M342.198 258.808C342.198 258.808 313.832 299.124 256.49 299.124C199.148 299.124 171.398 258.808 171.398 258.808C171.398 258.808 200.465 319.234 256.49 319.234C312.515 319.234 342.198 258.808 342.198 258.808ZM398.897 256.49C398.897 256.49 358.581 284.856 358.581 342.198C358.581 399.54 398.897 427.29 398.897 427.29C398.897 427.29 338.471 398.223 338.471 342.198C338.471 286.173 398.897 256.49 398.897 256.49ZM114.516 256.49C114.516 256.49 154.832 284.856 154.832 342.198C154.832 399.54 114.516 427.29 114.516 427.29C114.516 427.29 174.942 398.223 174.942 342.198C174.942 286.173 114.516 256.49 114.516 256.49Z" fill="currentColor"/>
<path fill-rule="evenodd" clip-rule="evenodd" d="M256.49 0C287.565 0 314.962 19.4443 327.798 47.1709C340.635 74.8974 337.716 107.899 320.297 132.669L311.116 145.787L328.512 151.897C392.069 174.363 415.043 216.41 420.902 236.901C430.824 234.46 439.845 233.125 447.129 232.496C466.672 230.86 474.284 233.031 477.401 234.114C485.458 236.904 490.951 242.396 493.741 250.453C494.824 253.57 496.995 261.182 495.359 280.725C493.724 300.268 490.615 308.402 489.532 311.519C486.742 319.576 481.25 325.068 473.193 327.858C470.076 328.941 462.464 331.112 442.921 329.476C433.447 328.642 421.909 326.661 408.157 323.1C398.979 348.223 384.043 369.088 368.712 385.476C337.603 418.988 297.797 437.327 256.49 437.327C215.183 437.327 175.377 418.988 144.268 385.476C128.937 369.088 114.001 348.223 104.823 323.1C91.0715 326.661 79.5335 328.642 70.0589 329.476C50.5159 331.112 42.9044 328.941 39.7876 327.858C31.7303 325.068 26.238 319.576 23.4483 311.519C22.3653 308.402 20.1945 300.268 18.5589 280.725C16.9233 261.182 19.0941 253.57 20.1771 250.453C22.9668 242.396 28.459 236.904 36.5163 234.114C39.6331 233.031 47.2447 230.86 66.7876 232.496C74.0716 233.125 83.0926 234.46 93.0148 236.901C98.8734 216.41 121.848 174.363 185.405 151.897L202.801 145.787L193.62 132.669C176.201 107.899 173.282 74.8974 186.119 47.1709C198.955 19.4443 226.352 0 257.427 0H256.49ZM256.49 41.8779C239.107 41.8779 225.654 51.1964 219.21 66.0819C212.766 80.9674 214.434 98.3987 223.706 111.831L256.49 160.024L289.274 111.831C298.546 98.3987 300.214 80.9674 293.77 66.0819C287.326 51.1964 273.873 41.8779 256.49 41.8779ZM396.122 273.591C380.589 284.51 359.324 303.466 359.324 342.198C359.324 380.93 380.589 399.886 396.122 410.805C389.557 399.852 380.055 380.462 380.055 342.198C380.055 303.934 389.557 284.544 396.122 273.591ZM117.291 273.591C123.856 284.544 133.358 303.934 133.358 342.198C133.358 380.462 123.856 399.852 117.291 410.805C132.824 399.886 154.089 380.93 154.089 342.198C154.089 303.466 132.824 284.51 117.291 273.591Z" fill="currentColor"/>
</svg> 