<?xml version="1.0" encoding="UTF-8"?>
<svg width="512" height="512" viewBox="0 0 512 512" fill="none" xmlns="http://www.w3.org/2000/svg">
<path fill-rule="evenodd" clip-rule="evenodd" d="M102.726 405.978L184.848 382.166L255.778 511.857C255.871 512.025 256.112 512.025 256.204 511.857L327.134 382.166L409.257 405.978C409.441 406.031 409.612 405.86 409.559 405.676L385.747 323.553L515.438 252.623C515.606 252.531 515.606 252.29 515.438 252.197L385.747 181.267L409.559 99.1451C409.612 98.9607 409.441 98.7901 409.257 98.8428L327.134 122.655L256.204 -7.03615C256.112 -7.20373 255.871 -7.20373 255.778 -7.03615L184.848 122.655L102.726 98.8428C102.541 98.7901 102.371 98.9607 102.424 99.1451L126.236 181.267L-3.45473 252.197C-3.62231 252.29 -3.62231 252.531 -3.45473 252.623L126.236 323.553L102.424 405.676C102.371 405.86 102.541 406.031 102.726 405.978ZM166.452 252.41C166.452 203.517 206.016 163.953 254.909 163.953C303.802 163.953 343.366 203.517 343.366 252.41C343.366 301.303 303.802 340.867 254.909 340.867C206.016 340.867 166.452 301.303 166.452 252.41Z" fill="currentColor"/>
</svg> 