<?xml version="1.0" encoding="UTF-8"?>
<svg width="512" height="512" viewBox="0 0 512 512" fill="none" xmlns="http://www.w3.org/2000/svg">
<path fill-rule="evenodd" clip-rule="evenodd" d="M178.712 477.733C253.715 477.733 317.927 436.048 344.436 376.956C344.436 376.956 276.419 404.737 218.971 404.737C161.523 404.737 87.1424 376.956 87.1424 376.956C87.1424 376.956 96.6247 407.789 178.712 477.733Z" fill="currentColor"/>
<path fill-rule="evenodd" clip-rule="evenodd" d="M276.962 366.563C343.81 366.563 401.033 329.991 424.962 277.831C424.962 277.831 364.015 302.534 312.915 302.534C261.815 302.534 195.145 277.831 195.145 277.831C195.145 277.831 203.653 305.325 276.962 366.563Z" fill="currentColor"/>
<path fill-rule="evenodd" clip-rule="evenodd" d="M290.045 252.095C344.36 252.095 390.786 222.924 409.639 180.517C409.639 180.517 361.244 200.023 319.922 200.023C278.6 200.023 224.881 180.517 224.881 180.517C224.881 180.517 231.84 202.428 290.045 252.095Z" fill="currentColor"/>
<path fill-rule="evenodd" clip-rule="evenodd" d="M238.798 127.329C238.798 127.329 250.907 170.133 289.664 170.133C328.421 170.133 370.89 127.329 370.89 127.329C370.89 127.329 328.421 144.451 289.664 144.451C250.907 144.451 238.798 127.329 238.798 127.329Z" fill="currentColor"/>
</svg> 