<?xml version="1.0" encoding="UTF-8"?>
<svg width="512" height="512" viewBox="112 112 140 160" fill="none" xmlns="http://www.w3.org/2000/svg">
    <path fill="currentColor" d="M 215.859375 235.25 C 215.25 229.664062 214.054688 224.09375 211.882812 218.894531 C 207.519531 208.417969 199.800781 200.285156 191.609375 192.660156 C 177.558594 179.574219 163.386719 166.609375 149.277344 153.585938 C 159.46875 162.992188 172.917969 168.980469 184.125 177.109375 C 196.566406 186.132812 209.023438 196.824219 216.898438 210.230469 C 219.390625 214.464844 221.4375 218.957031 222.925781 223.640625 C 226.25 234.105469 226.710938 246.582031 223.847656 257.515625 C 231.546875 252.804688 237.460938 245.054688 240.488281 235.96875 C 246.605469 217.605469 240.539062 197.296875 228.257812 182.894531 C 212.34375 164.226562 187.246094 153.226562 165.332031 143.488281 C 164.078125 142.929688 162.820312 142.375 161.558594 141.824219 C 154.75 138.824219 147.832031 135.820312 142.027344 131.164062 C 136.222656 126.511719 131.566406 119.917969 130.925781 112.507812 C 130.789062 117.082031 129.582031 120.832031 129.445312 125.410156 C 128.347656 162.898438 135.464844 199.660156 157.628906 230.699219 C 164.683594 240.574219 173.125 249.730469 183.691406 255.703125 C 189.28125 258.863281 196.039062 261.316406 202.859375 262.132812 C 205.839844 262.488281 208.726562 262.40625 211.503906 262 C 215.964844 254.191406 216.804688 243.878906 215.859375 235.25" fill-rule="nonzero"/>
</svg> 