<?xml version="1.0" encoding="UTF-8"?>
<svg width="512" height="512" viewBox="0 0 512 512" fill="none" xmlns="http://www.w3.org/2000/svg">
<path fill-rule="evenodd" clip-rule="evenodd" d="M427.821 393.449C479.524 352.108 512 292.376 512 225.95C512 101.161 397.385 0 256 0C114.615 0 0 101.161 0 225.95C0 292.376 32.4764 352.108 84.1794 393.449C64.0198 421.355 51.2109 454.661 51.2109 490.51C51.2109 490.51 112.765 437.286 256.398 437.286C399.343 437.286 460.789 490.51 460.789 490.51C460.789 454.661 447.98 421.355 427.821 393.449ZM220.931 225.93C220.931 242.449 207.571 255.81 191.052 255.81C174.533 255.81 161.172 242.449 161.172 225.93C161.172 209.411 174.533 196.051 191.052 196.051C207.571 196.051 220.931 209.411 220.931 225.93ZM347.511 196.051C364.03 196.051 377.391 209.411 377.391 225.93C377.391 242.449 364.03 255.81 347.511 255.81C330.992 255.81 317.632 242.449 317.632 225.93C317.632 209.411 330.992 196.051 347.511 196.051Z" fill="currentColor"/>
</svg> 