<?xml version="1.0" encoding="UTF-8"?>
<svg width="512" height="512" viewBox="0 0 512 512" fill="none" xmlns="http://www.w3.org/2000/svg">
<path fill-rule="evenodd" clip-rule="evenodd" d="M455.925 425.184C455.925 425.184 391.365 476.963 262.893 455.536C165.423 439.279 113.437 331.833 113.437 331.833C113.437 331.833 189.571 351.561 248.704 356.706C307.837 361.85 371.697 352.661 371.697 352.661C371.697 352.661 306.586 335.554 248.704 329.559C190.821 323.564 113.437 331.833 113.437 331.833C113.437 331.833 189.571 256.899 255.832 262.744C322.094 268.589 371.697 352.661 371.697 352.661C371.697 352.661 306.586 263.594 255.832 227.844C205.077 192.095 134.228 187.801 134.228 187.801C134.228 187.801 150.435 137.896 219.343 114.119C288.251 90.3426 355.212 125.242 355.212 125.242L357.012 174.297C357.012 174.297 399.798 203.619 409.487 271.676C419.176 339.733 455.925 425.184 455.925 425.184ZM256.133 129.345C276.44 129.345 292.878 112.907 292.878 92.6006C292.878 72.2939 276.44 55.8562 256.133 55.8562C235.827 55.8562 219.389 72.2939 219.389 92.6006C219.389 112.907 235.827 129.345 256.133 129.345Z" fill="currentColor"/>
</svg> 